<?xml version="1.0" encoding="iso-8859-1"?>
<!-- Uploaded to: SVG Repo, www.svgrepo.com, Generator: SVG Repo Mixer Tools -->
<svg height="800px" width="800px" version="1.1" id="Layer_1" xmlns="http://www.w3.org/2000/svg" xmlns:xlink="http://www.w3.org/1999/xlink" 
	 viewBox="0 0 512.001 512.001" xml:space="preserve">
<g>
	<g>
		<g>
			<path style="fill:#231F20;" d="M368.692,393.365V20.981C368.69,9.393,359.297,0,347.71,0H75.695
				C64.107,0,54.714,9.393,54.714,20.981v381.171c0,11.587,9.393,20.981,20.981,20.981h263.228
				C355.363,423.133,368.692,409.805,368.692,393.365z M274.611,337.118H149.446c-11.296,0-21.048-8.679-21.545-19.964
				c-0.528-11.979,9.028-21.857,20.89-21.857h125.164c11.296,0,21.048,8.679,21.545,19.964
				C296.029,327.239,286.473,337.118,274.611,337.118z M274.611,273.43H149.446c-11.296,0-21.048-8.679-21.545-19.964
				c-0.528-11.979,9.027-21.857,20.89-21.857h125.164c11.296,0,21.048,8.679,21.545,19.964
				C296.029,263.552,286.473,273.43,274.611,273.43z M295.522,182.203c0,11.587-9.393,20.981-20.981,20.981h-125.68
				c-11.587,0-20.981-9.393-20.981-20.981v-77.987c0-11.587,9.393-20.982,20.981-20.982h125.68c11.587,0,20.981,9.393,20.981,20.982
				V182.203z"/>
			<path style="fill:#231F20;" d="M436.376,88.867h-11.923c-7.699,0-13.941,6.241-13.941,13.941v299.415
				c0,34.647-28.086,62.733-62.733,62.733H157.252c-7.699,0-13.941,6.241-13.941,13.941v12.194c0,11.548,9.363,20.911,20.911,20.911
				h272.154c11.548,0,20.911-9.363,20.911-20.911V109.778C457.287,98.228,447.925,88.867,436.376,88.867z"/>
		</g>
	</g>
</g>
</svg>